<mxfile host="Electron" agent="Mozilla/5.0 (Windows NT 10.0; Win64; x64) AppleWebKit/537.36 (KHTML, like Gecko) draw.io/24.7.8 Chrome/128.0.6613.36 Electron/32.0.1 Safari/537.36" version="24.7.8" pages="2">
  <diagram name="PÃ¡gina-1" id="Q3eSvp01EAHDmlviO-K0">
    <mxGraphModel dx="978" dy="591" grid="1" gridSize="10" guides="1" tooltips="1" connect="1" arrows="1" fold="1" page="1" pageScale="1" pageWidth="827" pageHeight="1169" math="0" shadow="0">
      <root>
        <mxCell id="0" />
        <mxCell id="1" parent="0" />
        <mxCell id="zz0z5hb-NqMB_PEZiXnN-1" value="Inicio" style="strokeWidth=2;html=1;shape=mxgraph.flowchart.terminator;whiteSpace=wrap;" parent="1" vertex="1">
          <mxGeometry x="348.29" y="260" width="100" height="60" as="geometry" />
        </mxCell>
        <mxCell id="zz0z5hb-NqMB_PEZiXnN-4" value="" style="edgeStyle=orthogonalEdgeStyle;rounded=0;orthogonalLoop=1;jettySize=auto;html=1;exitX=0.5;exitY=1;exitDx=0;exitDy=0;" parent="1" edge="1">
          <mxGeometry relative="1" as="geometry">
            <mxPoint x="398.29" y="420" as="sourcePoint" />
            <mxPoint x="397.29" y="470" as="targetPoint" />
          </mxGeometry>
        </mxCell>
        <mxCell id="zz0z5hb-NqMB_PEZiXnN-6" value="" style="edgeStyle=orthogonalEdgeStyle;rounded=0;orthogonalLoop=1;jettySize=auto;html=1;" parent="1" target="zz0z5hb-NqMB_PEZiXnN-5" edge="1">
          <mxGeometry relative="1" as="geometry">
            <mxPoint x="398.29" y="530" as="sourcePoint" />
          </mxGeometry>
        </mxCell>
        <mxCell id="zz0z5hb-NqMB_PEZiXnN-5" value="&amp;nbsp;destino= regiaobr" style="shape=parallelogram;perimeter=parallelogramPerimeter;whiteSpace=wrap;html=1;fixedSize=1;strokeWidth=2;rounded=0;arcSize=12;fillColor=#dae8fc;strokeColor=#6c8ebf;" parent="1" vertex="1">
          <mxGeometry x="333.29" y="560" width="130" height="60" as="geometry" />
        </mxCell>
        <mxCell id="zz0z5hb-NqMB_PEZiXnN-11" value="classe=&quot;executiva&quot;" style="shape=parallelogram;perimeter=parallelogramPerimeter;whiteSpace=wrap;html=1;fixedSize=1;strokeWidth=2;rounded=0;arcSize=12;fillColor=#dae8fc;strokeColor=#6c8ebf;" parent="1" vertex="1">
          <mxGeometry x="334.29" y="660" width="129" height="60" as="geometry" />
        </mxCell>
        <mxCell id="zz0z5hb-NqMB_PEZiXnN-23" value="" style="edgeStyle=orthogonalEdgeStyle;rounded=0;orthogonalLoop=1;jettySize=auto;html=1;" parent="1" target="zz0z5hb-NqMB_PEZiXnN-22" edge="1">
          <mxGeometry relative="1" as="geometry">
            <mxPoint x="394.66666666666674" y="810" as="sourcePoint" />
          </mxGeometry>
        </mxCell>
        <mxCell id="zz0z5hb-NqMB_PEZiXnN-15" value="" style="endArrow=classic;html=1;rounded=0;exitX=0.5;exitY=1;exitDx=0;exitDy=0;" parent="1" source="zz0z5hb-NqMB_PEZiXnN-5" edge="1">
          <mxGeometry width="50" height="50" relative="1" as="geometry">
            <mxPoint x="388.29" y="668" as="sourcePoint" />
            <mxPoint x="398.29" y="660" as="targetPoint" />
          </mxGeometry>
        </mxCell>
        <mxCell id="zz0z5hb-NqMB_PEZiXnN-16" value="" style="endArrow=classic;html=1;rounded=0;exitX=0.457;exitY=1;exitDx=0;exitDy=0;exitPerimeter=0;" parent="1" source="zz0z5hb-NqMB_PEZiXnN-11" edge="1">
          <mxGeometry width="50" height="50" relative="1" as="geometry">
            <mxPoint x="383.29" y="770" as="sourcePoint" />
            <mxPoint x="393.29" y="750" as="targetPoint" />
          </mxGeometry>
        </mxCell>
        <mxCell id="zz0z5hb-NqMB_PEZiXnN-21" value="" style="endArrow=classic;html=1;rounded=0;exitX=0.5;exitY=1;exitDx=0;exitDy=0;exitPerimeter=0;entryX=0.5;entryY=0;entryDx=0;entryDy=0;" parent="1" source="zz0z5hb-NqMB_PEZiXnN-1" edge="1">
          <mxGeometry width="50" height="50" relative="1" as="geometry">
            <mxPoint x="373.29" y="300" as="sourcePoint" />
            <mxPoint x="398.29" y="360" as="targetPoint" />
          </mxGeometry>
        </mxCell>
        <mxCell id="zz0z5hb-NqMB_PEZiXnN-25" value="" style="edgeStyle=orthogonalEdgeStyle;rounded=0;orthogonalLoop=1;jettySize=auto;html=1;" parent="1" source="zz0z5hb-NqMB_PEZiXnN-22" target="zz0z5hb-NqMB_PEZiXnN-24" edge="1">
          <mxGeometry relative="1" as="geometry" />
        </mxCell>
        <mxCell id="zz0z5hb-NqMB_PEZiXnN-22" value="eco_passageirosul= 200" style="shape=parallelogram;perimeter=parallelogramPerimeter;whiteSpace=wrap;html=1;fixedSize=1;strokeWidth=2;rounded=0;arcSize=12;fillColor=#dae8fc;strokeColor=#6c8ebf;" parent="1" vertex="1">
          <mxGeometry x="311.74" y="850" width="165.5" height="60" as="geometry" />
        </mxCell>
        <mxCell id="zz0z5hb-NqMB_PEZiXnN-27" value="" style="edgeStyle=orthogonalEdgeStyle;rounded=0;orthogonalLoop=1;jettySize=auto;html=1;" parent="1" source="zz0z5hb-NqMB_PEZiXnN-24" target="zz0z5hb-NqMB_PEZiXnN-26" edge="1">
          <mxGeometry relative="1" as="geometry" />
        </mxCell>
        <mxCell id="zz0z5hb-NqMB_PEZiXnN-24" value="exe_passegeirosul= 400" style="shape=parallelogram;perimeter=parallelogramPerimeter;whiteSpace=wrap;html=1;fixedSize=1;strokeWidth=2;rounded=0;arcSize=12;fillColor=#dae8fc;strokeColor=#6c8ebf;" parent="1" vertex="1">
          <mxGeometry x="306.24" y="950" width="175.5" height="60" as="geometry" />
        </mxCell>
        <mxCell id="zz0z5hb-NqMB_PEZiXnN-26" value="eco_criancanorte= 400" style="shape=parallelogram;perimeter=parallelogramPerimeter;whiteSpace=wrap;html=1;fixedSize=1;strokeWidth=2;rounded=0;arcSize=12;fillColor=#dae8fc;strokeColor=#6c8ebf;" parent="1" vertex="1">
          <mxGeometry x="316" y="1040" width="155.5" height="60" as="geometry" />
        </mxCell>
        <mxCell id="zz0z5hb-NqMB_PEZiXnN-36" value="" style="edgeStyle=orthogonalEdgeStyle;rounded=0;orthogonalLoop=1;jettySize=auto;html=1;" parent="1" source="zz0z5hb-NqMB_PEZiXnN-28" target="zz0z5hb-NqMB_PEZiXnN-35" edge="1">
          <mxGeometry relative="1" as="geometry" />
        </mxCell>
        <mxCell id="zz0z5hb-NqMB_PEZiXnN-28" value="eco_adultonorte= 500" style="shape=parallelogram;perimeter=parallelogramPerimeter;whiteSpace=wrap;html=1;fixedSize=1;strokeWidth=2;rounded=0;arcSize=12;fillColor=#dae8fc;strokeColor=#6c8ebf;" parent="1" vertex="1">
          <mxGeometry x="316.75" y="1240" width="155.5" height="60" as="geometry" />
        </mxCell>
        <mxCell id="zz0z5hb-NqMB_PEZiXnN-38" value="" style="edgeStyle=orthogonalEdgeStyle;rounded=0;orthogonalLoop=1;jettySize=auto;html=1;" parent="1" source="zz0z5hb-NqMB_PEZiXnN-35" target="zz0z5hb-NqMB_PEZiXnN-37" edge="1">
          <mxGeometry relative="1" as="geometry" />
        </mxCell>
        <mxCell id="zz0z5hb-NqMB_PEZiXnN-35" value="xe_criancanorte= eco_criancanorte+(400*10/100)" style="rounded=1;whiteSpace=wrap;html=1;strokeWidth=2;arcSize=12;fillColor=#fff2cc;strokeColor=#d6b656;" parent="1" vertex="1">
          <mxGeometry x="272.88" y="1340" width="243.25" height="60" as="geometry" />
        </mxCell>
        <mxCell id="zz0z5hb-NqMB_PEZiXnN-40" value="" style="edgeStyle=orthogonalEdgeStyle;rounded=0;orthogonalLoop=1;jettySize=auto;html=1;" parent="1" source="zz0z5hb-NqMB_PEZiXnN-37" target="zz0z5hb-NqMB_PEZiXnN-39" edge="1">
          <mxGeometry relative="1" as="geometry" />
        </mxCell>
        <mxCell id="zz0z5hb-NqMB_PEZiXnN-37" value="exe_adultonorte= eco_adultonorte+(500*10/100)" style="rounded=1;whiteSpace=wrap;html=1;fillColor=#fff2cc;strokeColor=#d6b656;strokeWidth=2;arcSize=12;" parent="1" vertex="1">
          <mxGeometry x="286.76" y="1440" width="215.5" height="60" as="geometry" />
        </mxCell>
        <mxCell id="zz0z5hb-NqMB_PEZiXnN-44" value="" style="edgeStyle=orthogonalEdgeStyle;rounded=0;orthogonalLoop=1;jettySize=auto;html=1;" parent="1" source="zz0z5hb-NqMB_PEZiXnN-39" target="zz0z5hb-NqMB_PEZiXnN-43" edge="1">
          <mxGeometry relative="1" as="geometry" />
        </mxCell>
        <mxCell id="zz0z5hb-NqMB_PEZiXnN-39" value="eco_pessoaeuropa=1800" style="shape=parallelogram;perimeter=parallelogramPerimeter;whiteSpace=wrap;html=1;fixedSize=1;rounded=0;strokeWidth=2;arcSize=12;fillColor=#dae8fc;strokeColor=#6c8ebf;" parent="1" vertex="1">
          <mxGeometry x="305.38" y="1530" width="178.25" height="60" as="geometry" />
        </mxCell>
        <mxCell id="zz0z5hb-NqMB_PEZiXnN-46" value="" style="edgeStyle=orthogonalEdgeStyle;rounded=0;orthogonalLoop=1;jettySize=auto;html=1;" parent="1" source="zz0z5hb-NqMB_PEZiXnN-43" target="zz0z5hb-NqMB_PEZiXnN-45" edge="1">
          <mxGeometry relative="1" as="geometry" />
        </mxCell>
        <mxCell id="zz0z5hb-NqMB_PEZiXnN-43" value="exe_pessoaeuropa=2300" style="shape=parallelogram;perimeter=parallelogramPerimeter;whiteSpace=wrap;html=1;fixedSize=1;rounded=0;strokeWidth=2;arcSize=12;fillColor=#dae8fc;strokeColor=#6c8ebf;" parent="1" vertex="1">
          <mxGeometry x="311.75" y="1630" width="165.5" height="60" as="geometry" />
        </mxCell>
        <mxCell id="zz0z5hb-NqMB_PEZiXnN-48" value="" style="edgeStyle=orthogonalEdgeStyle;rounded=0;orthogonalLoop=1;jettySize=auto;html=1;" parent="1" source="zz0z5hb-NqMB_PEZiXnN-45" target="zz0z5hb-NqMB_PEZiXnN-47" edge="1">
          <mxGeometry relative="1" as="geometry" />
        </mxCell>
        <mxCell id="zz0z5hb-NqMB_PEZiXnN-45" value="eco_pessoaasia=1600" style="shape=parallelogram;perimeter=parallelogramPerimeter;whiteSpace=wrap;html=1;fixedSize=1;rounded=0;strokeWidth=2;arcSize=12;fillColor=#dae8fc;strokeColor=#6c8ebf;" parent="1" vertex="1">
          <mxGeometry x="316.76" y="1730" width="155.49" height="60" as="geometry" />
        </mxCell>
        <mxCell id="zz0z5hb-NqMB_PEZiXnN-50" value="" style="edgeStyle=orthogonalEdgeStyle;rounded=0;orthogonalLoop=1;jettySize=auto;html=1;" parent="1" source="zz0z5hb-NqMB_PEZiXnN-47" target="zz0z5hb-NqMB_PEZiXnN-49" edge="1">
          <mxGeometry relative="1" as="geometry" />
        </mxCell>
        <mxCell id="zz0z5hb-NqMB_PEZiXnN-47" value="exe_pessoaasia=2000" style="shape=parallelogram;perimeter=parallelogramPerimeter;whiteSpace=wrap;html=1;fixedSize=1;rounded=0;strokeWidth=2;arcSize=12;fillColor=#dae8fc;strokeColor=#6c8ebf;" parent="1" vertex="1">
          <mxGeometry x="316.75" y="1830" width="155.5" height="60" as="geometry" />
        </mxCell>
        <mxCell id="zz0z5hb-NqMB_PEZiXnN-52" value="" style="edgeStyle=orthogonalEdgeStyle;rounded=0;orthogonalLoop=1;jettySize=auto;html=1;" parent="1" source="zz0z5hb-NqMB_PEZiXnN-49" target="zz0z5hb-NqMB_PEZiXnN-51" edge="1">
          <mxGeometry relative="1" as="geometry" />
        </mxCell>
        <mxCell id="zz0z5hb-NqMB_PEZiXnN-49" value="eco_pessoaafrica=1200" style="shape=parallelogram;perimeter=parallelogramPerimeter;whiteSpace=wrap;html=1;fixedSize=1;rounded=0;strokeWidth=2;arcSize=12;fillColor=#dae8fc;strokeColor=#6c8ebf;" parent="1" vertex="1">
          <mxGeometry x="311.75" y="1940" width="164.5" height="60" as="geometry" />
        </mxCell>
        <mxCell id="zz0z5hb-NqMB_PEZiXnN-54" value="" style="edgeStyle=orthogonalEdgeStyle;rounded=0;orthogonalLoop=1;jettySize=auto;html=1;" parent="1" source="zz0z5hb-NqMB_PEZiXnN-51" target="zz0z5hb-NqMB_PEZiXnN-53" edge="1">
          <mxGeometry relative="1" as="geometry" />
        </mxCell>
        <mxCell id="zz0z5hb-NqMB_PEZiXnN-51" value="exe_pessoaafrica=1900" style="shape=parallelogram;perimeter=parallelogramPerimeter;whiteSpace=wrap;html=1;fixedSize=1;rounded=0;strokeWidth=2;arcSize=12;fillColor=#dae8fc;strokeColor=#6c8ebf;" parent="1" vertex="1">
          <mxGeometry x="313.5" y="2040" width="161" height="60" as="geometry" />
        </mxCell>
        <mxCell id="zz0z5hb-NqMB_PEZiXnN-56" value="" style="edgeStyle=orthogonalEdgeStyle;rounded=0;orthogonalLoop=1;jettySize=auto;html=1;" parent="1" source="zz0z5hb-NqMB_PEZiXnN-53" target="zz0z5hb-NqMB_PEZiXnN-55" edge="1">
          <mxGeometry relative="1" as="geometry" />
        </mxCell>
        <mxCell id="zz0z5hb-NqMB_PEZiXnN-53" value="passageirocrianÃ§a= 1" style="shape=parallelogram;perimeter=parallelogramPerimeter;whiteSpace=wrap;html=1;fixedSize=1;rounded=0;strokeWidth=2;arcSize=12;fillColor=#dae8fc;strokeColor=#6c8ebf;" parent="1" vertex="1">
          <mxGeometry x="316.75" y="2130" width="155.49" height="60" as="geometry" />
        </mxCell>
        <mxCell id="zz0z5hb-NqMB_PEZiXnN-60" value="" style="edgeStyle=orthogonalEdgeStyle;rounded=0;orthogonalLoop=1;jettySize=auto;html=1;" parent="1" source="zz0z5hb-NqMB_PEZiXnN-55" edge="1">
          <mxGeometry relative="1" as="geometry">
            <mxPoint x="394" y="2300" as="targetPoint" />
          </mxGeometry>
        </mxCell>
        <mxCell id="zz0z5hb-NqMB_PEZiXnN-55" value="passageiroadulto= 2" style="shape=parallelogram;perimeter=parallelogramPerimeter;whiteSpace=wrap;html=1;fixedSize=1;rounded=0;strokeWidth=2;arcSize=12;fillColor=#dae8fc;strokeColor=#6c8ebf;" parent="1" vertex="1">
          <mxGeometry x="322" y="2220" width="145.51" height="60" as="geometry" />
        </mxCell>
        <mxCell id="zz0z5hb-NqMB_PEZiXnN-64" value="" style="edgeStyle=orthogonalEdgeStyle;rounded=0;orthogonalLoop=1;jettySize=auto;html=1;" parent="1" source="zz0z5hb-NqMB_PEZiXnN-59" target="zz0z5hb-NqMB_PEZiXnN-63" edge="1">
          <mxGeometry relative="1" as="geometry" />
        </mxCell>
        <mxCell id="zz0z5hb-NqMB_PEZiXnN-59" value="&amp;nbsp;passageirostotal= passageiroadulto+passageirocrianÃ§a;" style="rounded=1;whiteSpace=wrap;html=1;strokeWidth=2;arcSize=12;fillColor=#fff2cc;strokeColor=#d6b656;" parent="1" vertex="1">
          <mxGeometry x="281.26" y="2400" width="225.49" height="60" as="geometry" />
        </mxCell>
        <mxCell id="zz0z5hb-NqMB_PEZiXnN-66" value="" style="edgeStyle=orthogonalEdgeStyle;rounded=0;orthogonalLoop=1;jettySize=auto;html=1;" parent="1" source="zz0z5hb-NqMB_PEZiXnN-63" target="zz0z5hb-NqMB_PEZiXnN-65" edge="1">
          <mxGeometry relative="1" as="geometry" />
        </mxCell>
        <mxCell id="zz0z5hb-NqMB_PEZiXnN-63" value="total_sul_eco=(eco_passageirosul*passageiroadulto)+(eco_passageirosul*passageirocrianÃ§a)" style="rounded=1;whiteSpace=wrap;html=1;fillColor=#fff2cc;strokeColor=#d6b656;strokeWidth=2;arcSize=12;" parent="1" vertex="1">
          <mxGeometry x="212.12" y="2500" width="363.76" height="60" as="geometry" />
        </mxCell>
        <mxCell id="zz0z5hb-NqMB_PEZiXnN-68" value="" style="edgeStyle=orthogonalEdgeStyle;rounded=0;orthogonalLoop=1;jettySize=auto;html=1;" parent="1" source="zz0z5hb-NqMB_PEZiXnN-65" target="zz0z5hb-NqMB_PEZiXnN-67" edge="1">
          <mxGeometry relative="1" as="geometry" />
        </mxCell>
        <mxCell id="zz0z5hb-NqMB_PEZiXnN-65" value="total_sul_exe=(exe_passegeirosul*passageiroadulto)+(exe_passegeirosul*passageirocrianÃ§a)" style="rounded=1;whiteSpace=wrap;html=1;fillColor=#fff2cc;strokeColor=#d6b656;strokeWidth=2;arcSize=12;" parent="1" vertex="1">
          <mxGeometry x="232.75" y="2600" width="324.01" height="60" as="geometry" />
        </mxCell>
        <mxCell id="zz0z5hb-NqMB_PEZiXnN-70" value="" style="edgeStyle=orthogonalEdgeStyle;rounded=0;orthogonalLoop=1;jettySize=auto;html=1;" parent="1" source="zz0z5hb-NqMB_PEZiXnN-67" target="zz0z5hb-NqMB_PEZiXnN-69" edge="1">
          <mxGeometry relative="1" as="geometry" />
        </mxCell>
        <mxCell id="zz0z5hb-NqMB_PEZiXnN-67" value="total_norte_eco=(eco_criancanorte*passageiroadulto)+(eco_adultonorte*passageiroadulto)" style="rounded=1;whiteSpace=wrap;html=1;fillColor=#fff2cc;strokeColor=#d6b656;strokeWidth=2;arcSize=12;" parent="1" vertex="1">
          <mxGeometry x="231.13" y="2700" width="329.01" height="60" as="geometry" />
        </mxCell>
        <mxCell id="zz0z5hb-NqMB_PEZiXnN-72" value="" style="edgeStyle=orthogonalEdgeStyle;rounded=0;orthogonalLoop=1;jettySize=auto;html=1;" parent="1" source="zz0z5hb-NqMB_PEZiXnN-69" target="zz0z5hb-NqMB_PEZiXnN-71" edge="1">
          <mxGeometry relative="1" as="geometry" />
        </mxCell>
        <mxCell id="zz0z5hb-NqMB_PEZiXnN-69" value="total_norte_exe=(exe_criancanorte*passageiroadulto)+(exe_adultonorte*passageiroadulto)" style="rounded=1;whiteSpace=wrap;html=1;fillColor=#fff2cc;strokeColor=#d6b656;strokeWidth=2;arcSize=12;" parent="1" vertex="1">
          <mxGeometry x="241.13000000000002" y="2800" width="309.01" height="60" as="geometry" />
        </mxCell>
        <mxCell id="zz0z5hb-NqMB_PEZiXnN-74" value="" style="edgeStyle=orthogonalEdgeStyle;rounded=0;orthogonalLoop=1;jettySize=auto;html=1;" parent="1" source="zz0z5hb-NqMB_PEZiXnN-71" target="zz0z5hb-NqMB_PEZiXnN-73" edge="1">
          <mxGeometry relative="1" as="geometry" />
        </mxCell>
        <mxCell id="zz0z5hb-NqMB_PEZiXnN-71" value="total_europa_eco=(eco_pessoaeuropa*passageirostotal)" style="rounded=1;whiteSpace=wrap;html=1;fillColor=#fff2cc;strokeColor=#d6b656;strokeWidth=2;arcSize=12;" parent="1" vertex="1">
          <mxGeometry x="272.88" y="2893" width="243.49" height="60" as="geometry" />
        </mxCell>
        <mxCell id="zz0z5hb-NqMB_PEZiXnN-76" value="" style="edgeStyle=orthogonalEdgeStyle;rounded=0;orthogonalLoop=1;jettySize=auto;html=1;" parent="1" source="zz0z5hb-NqMB_PEZiXnN-73" target="zz0z5hb-NqMB_PEZiXnN-75" edge="1">
          <mxGeometry relative="1" as="geometry" />
        </mxCell>
        <mxCell id="zz0z5hb-NqMB_PEZiXnN-73" value="total_asia_eco=(eco_pessoaasia*passageirostotal)" style="rounded=1;whiteSpace=wrap;html=1;fillColor=#fff2cc;strokeColor=#d6b656;strokeWidth=2;arcSize=12;" parent="1" vertex="1">
          <mxGeometry x="291.25" y="2980" width="205.49" height="60" as="geometry" />
        </mxCell>
        <mxCell id="zz0z5hb-NqMB_PEZiXnN-78" value="" style="edgeStyle=orthogonalEdgeStyle;rounded=0;orthogonalLoop=1;jettySize=auto;html=1;" parent="1" source="zz0z5hb-NqMB_PEZiXnN-75" target="zz0z5hb-NqMB_PEZiXnN-77" edge="1">
          <mxGeometry relative="1" as="geometry" />
        </mxCell>
        <mxCell id="zz0z5hb-NqMB_PEZiXnN-75" value="total_asia_exe=(exe_pessoaasia*passageirostotal)" style="rounded=1;whiteSpace=wrap;html=1;fillColor=#fff2cc;strokeColor=#d6b656;strokeWidth=2;arcSize=12;" parent="1" vertex="1">
          <mxGeometry x="276.24" y="3070" width="235.51" height="60" as="geometry" />
        </mxCell>
        <mxCell id="zz0z5hb-NqMB_PEZiXnN-80" value="" style="edgeStyle=orthogonalEdgeStyle;rounded=0;orthogonalLoop=1;jettySize=auto;html=1;" parent="1" source="zz0z5hb-NqMB_PEZiXnN-77" target="zz0z5hb-NqMB_PEZiXnN-79" edge="1">
          <mxGeometry relative="1" as="geometry" />
        </mxCell>
        <mxCell id="zz0z5hb-NqMB_PEZiXnN-77" value="total_africa_eco=(eco_pessoaafrica*passageirostotal)" style="rounded=1;whiteSpace=wrap;html=1;fillColor=#fff2cc;strokeColor=#d6b656;strokeWidth=2;arcSize=12;" parent="1" vertex="1">
          <mxGeometry x="280.99" y="3170" width="226.01" height="60" as="geometry" />
        </mxCell>
        <mxCell id="zz0z5hb-NqMB_PEZiXnN-79" value="total_africa_exe=(exe_pessoaafrica*passageirostotal)" style="rounded=1;whiteSpace=wrap;html=1;fillColor=#fff2cc;strokeColor=#d6b656;strokeWidth=2;arcSize=12;" parent="1" vertex="1">
          <mxGeometry x="276.87" y="3270" width="235.25" height="60" as="geometry" />
        </mxCell>
        <mxCell id="zz0z5hb-NqMB_PEZiXnN-81" value="destino===regiaobr &amp;amp;&amp;amp;&amp;nbsp; regiaobr===&quot;Sul&quot; &amp;amp;&amp;amp; classe===&quot;executiva&quot;" style="strokeWidth=2;html=1;shape=mxgraph.flowchart.decision;whiteSpace=wrap;fillColor=#e1d5e7;strokeColor=#9673a6;" parent="1" vertex="1">
          <mxGeometry x="181.24" y="3580" width="220" height="100" as="geometry" />
        </mxCell>
        <mxCell id="zz0z5hb-NqMB_PEZiXnN-84" value="destino===regiaobr &amp;amp;&amp;amp;&amp;nbsp; regiaobr===&quot;Sul&quot; &amp;amp;&amp;amp; classe===&quot;economica&quot;" style="strokeWidth=2;html=1;shape=mxgraph.flowchart.decision;whiteSpace=wrap;fillColor=#e1d5e7;strokeColor=#9673a6;" parent="1" vertex="1">
          <mxGeometry x="365" y="3690" width="220" height="100" as="geometry" />
        </mxCell>
        <mxCell id="zz0z5hb-NqMB_PEZiXnN-88" value="destino===continente &amp;amp;&amp;amp; continente==&quot;Europa&quot; &amp;amp;&amp;amp; classe===&quot;economica&quot;" style="strokeWidth=2;html=1;shape=mxgraph.flowchart.decision;whiteSpace=wrap;fillColor=#e1d5e7;strokeColor=#9673a6;shadow=0;" parent="1" vertex="1">
          <mxGeometry x="451.13" y="4190" width="220" height="100" as="geometry" />
        </mxCell>
        <mxCell id="zz0z5hb-NqMB_PEZiXnN-89" value="destino===continente &amp;amp;&amp;amp; continente==&quot;Europa&quot; &amp;amp;&amp;amp; classe===&quot;executiva&quot;" style="strokeWidth=2;html=1;shape=mxgraph.flowchart.decision;whiteSpace=wrap;fillColor=#e1d5e7;strokeColor=#9673a6;" parent="1" vertex="1">
          <mxGeometry x="452.75" y="4360" width="220" height="100" as="geometry" />
        </mxCell>
        <mxCell id="zz0z5hb-NqMB_PEZiXnN-90" value="destino===continente &amp;amp;&amp;amp; continente==&quot;Asia&quot; &amp;amp;&amp;amp; classe===&quot;executiva&quot;" style="strokeWidth=2;html=1;shape=mxgraph.flowchart.decision;whiteSpace=wrap;fillColor=#e1d5e7;strokeColor=#9673a6;" parent="1" vertex="1">
          <mxGeometry x="455.75" y="4980" width="220" height="100" as="geometry" />
        </mxCell>
        <mxCell id="zz0z5hb-NqMB_PEZiXnN-93" value="destino===continente &amp;amp;&amp;amp; continente==&quot;Africa&quot; &amp;amp;&amp;amp; classe===&quot;executiva&quot;" style="strokeWidth=2;html=1;shape=mxgraph.flowchart.decision;whiteSpace=wrap;fillColor=#e1d5e7;strokeColor=#9673a6;" parent="1" vertex="1">
          <mxGeometry x="516.37" y="5370" width="220" height="100" as="geometry" />
        </mxCell>
        <mxCell id="zz0z5hb-NqMB_PEZiXnN-94" value="destino===continente &amp;amp;&amp;amp; continente==&quot;Africa&quot; &amp;amp;&amp;amp; classe===&quot;economica&quot;" style="strokeWidth=2;html=1;shape=mxgraph.flowchart.decision;whiteSpace=wrap;fillColor=#e1d5e7;strokeColor=#9673a6;" parent="1" vertex="1">
          <mxGeometry x="486.36" y="5190" width="220" height="100" as="geometry" />
        </mxCell>
        <mxCell id="zz0z5hb-NqMB_PEZiXnN-96" value="2" style="ellipse;whiteSpace=wrap;html=1;aspect=fixed;fillColor=#f8cecc;strokeColor=#b85450;" parent="1" vertex="1">
          <mxGeometry x="379.76" y="2300" width="30" height="30" as="geometry" />
        </mxCell>
        <mxCell id="zz0z5hb-NqMB_PEZiXnN-97" value="" style="endArrow=classic;html=1;rounded=0;exitX=0.5;exitY=1;exitDx=0;exitDy=0;entryX=0.5;entryY=0;entryDx=0;entryDy=0;" parent="1" source="zz0z5hb-NqMB_PEZiXnN-79" target="zz0z5hb-NqMB_PEZiXnN-99" edge="1">
          <mxGeometry width="50" height="50" relative="1" as="geometry">
            <mxPoint x="540" y="3500" as="sourcePoint" />
            <mxPoint x="400" y="3380" as="targetPoint" />
          </mxGeometry>
        </mxCell>
        <mxCell id="zz0z5hb-NqMB_PEZiXnN-99" value="3" style="ellipse;whiteSpace=wrap;html=1;aspect=fixed;fillColor=#f8cecc;strokeColor=#b85450;" parent="1" vertex="1">
          <mxGeometry x="377.49" y="3380" width="31.26" height="31.26" as="geometry" />
        </mxCell>
        <mxCell id="zz0z5hb-NqMB_PEZiXnN-100" value="" style="endArrow=classic;html=1;rounded=0;entryX=0.531;entryY=-0.017;entryDx=0;entryDy=0;entryPerimeter=0;" parent="1" target="zz0z5hb-NqMB_PEZiXnN-59" edge="1">
          <mxGeometry width="50" height="50" relative="1" as="geometry">
            <mxPoint x="400" y="2380" as="sourcePoint" />
            <mxPoint x="590" y="2550" as="targetPoint" />
          </mxGeometry>
        </mxCell>
        <mxCell id="zz0z5hb-NqMB_PEZiXnN-101" value="2" style="ellipse;whiteSpace=wrap;html=1;aspect=fixed;fillColor=#f8cecc;strokeColor=#b85450;" parent="1" vertex="1">
          <mxGeometry x="384.5" y="2350" width="30" height="30" as="geometry" />
        </mxCell>
        <mxCell id="zz0z5hb-NqMB_PEZiXnN-102" value="" style="endArrow=classic;html=1;rounded=0;entryX=0.5;entryY=0;entryDx=0;entryDy=0;entryPerimeter=0;" parent="1" source="zz0z5hb-NqMB_PEZiXnN-103" edge="1" target="zz0z5hb-NqMB_PEZiXnN-81">
          <mxGeometry width="50" height="50" relative="1" as="geometry">
            <mxPoint x="400" y="3550" as="sourcePoint" />
            <mxPoint x="155" y="3590" as="targetPoint" />
            <Array as="points" />
          </mxGeometry>
        </mxCell>
        <mxCell id="zz0z5hb-NqMB_PEZiXnN-103" value="3" style="ellipse;whiteSpace=wrap;html=1;aspect=fixed;fillColor=#f8cecc;strokeColor=#b85450;" parent="1" vertex="1">
          <mxGeometry x="276.87" y="3520" width="30" height="30" as="geometry" />
        </mxCell>
        <mxCell id="zz0z5hb-NqMB_PEZiXnN-104" value="O valor total da viagem para o destino escolhido foi:${total_sul_eco}" style="strokeWidth=2;html=1;shape=mxgraph.flowchart.display;whiteSpace=wrap;fillColor=#d5e8d4;strokeColor=#82b366;" parent="1" vertex="1">
          <mxGeometry x="190.64" y="3780" width="139.86" height="80" as="geometry" />
        </mxCell>
        <mxCell id="zz0z5hb-NqMB_PEZiXnN-120" value="`O valor total da viagem para o destino escolhido foi:${total_sul_exe}`" style="strokeWidth=2;html=1;shape=mxgraph.flowchart.display;whiteSpace=wrap;fillColor=#d5e8d4;strokeColor=#82b366;" parent="1" vertex="1">
          <mxGeometry x="30" y="3690" width="150" height="80" as="geometry" />
        </mxCell>
        <mxCell id="zz0z5hb-NqMB_PEZiXnN-124" value="O valor total da viagem para o destino escolhido foi:${total_norte_exe}" style="strokeWidth=2;html=1;shape=mxgraph.flowchart.display;whiteSpace=wrap;fillColor=#d5e8d4;strokeColor=#82b366;" parent="1" vertex="1">
          <mxGeometry x="300" y="3920" width="160" height="70" as="geometry" />
        </mxCell>
        <mxCell id="zz0z5hb-NqMB_PEZiXnN-125" value="O valor total da viagem para o destino escolhido foi:${total_europa_exe}" style="strokeWidth=2;html=1;shape=mxgraph.flowchart.display;whiteSpace=wrap;fillColor=#d5e8d4;strokeColor=#82b366;" parent="1" vertex="1">
          <mxGeometry x="241.13" y="4370.75" width="150" height="78.5" as="geometry" />
        </mxCell>
        <mxCell id="zz0z5hb-NqMB_PEZiXnN-126" value="O valor total da viagem para o destino escolhido foi:${total_africa_eco}" style="strokeWidth=2;html=1;shape=mxgraph.flowchart.display;whiteSpace=wrap;fillColor=#d5e8d4;strokeColor=#82b366;" parent="1" vertex="1">
          <mxGeometry x="268.62" y="5200" width="150" height="80" as="geometry" />
        </mxCell>
        <mxCell id="zz0z5hb-NqMB_PEZiXnN-137" value="Fim&amp;nbsp;" style="strokeWidth=2;html=1;shape=mxgraph.flowchart.terminator;whiteSpace=wrap;" parent="1" vertex="1">
          <mxGeometry x="325.87" y="5530" width="100" height="60" as="geometry" />
        </mxCell>
        <mxCell id="zz0z5hb-NqMB_PEZiXnN-140" value="" style="endArrow=classic;html=1;rounded=0;entryX=0.5;entryY=0;entryDx=0;entryDy=0;" parent="1" target="zz0z5hb-NqMB_PEZiXnN-28" edge="1">
          <mxGeometry width="50" height="50" relative="1" as="geometry">
            <mxPoint x="395" y="1210" as="sourcePoint" />
            <mxPoint x="590" y="950" as="targetPoint" />
          </mxGeometry>
        </mxCell>
        <mxCell id="zz0z5hb-NqMB_PEZiXnN-141" value="1" style="ellipse;whiteSpace=wrap;html=1;aspect=fixed;fillColor=#f8cecc;strokeColor=#b85450;" parent="1" vertex="1">
          <mxGeometry x="379" y="1180" width="30" height="30" as="geometry" />
        </mxCell>
        <mxCell id="zz0z5hb-NqMB_PEZiXnN-142" value="1" style="ellipse;whiteSpace=wrap;html=1;aspect=fixed;fillColor=#f8cecc;strokeColor=#b85450;" parent="1" vertex="1">
          <mxGeometry x="378.75" y="1130" width="30" height="30" as="geometry" />
        </mxCell>
        <mxCell id="zz0z5hb-NqMB_PEZiXnN-143" value="" style="endArrow=classic;html=1;rounded=0;exitX=0.5;exitY=1;exitDx=0;exitDy=0;entryX=0.5;entryY=0;entryDx=0;entryDy=0;" parent="1" source="zz0z5hb-NqMB_PEZiXnN-26" target="zz0z5hb-NqMB_PEZiXnN-142" edge="1">
          <mxGeometry width="50" height="50" relative="1" as="geometry">
            <mxPoint x="540" y="1000" as="sourcePoint" />
            <mxPoint x="590" y="950" as="targetPoint" />
          </mxGeometry>
        </mxCell>
        <mxCell id="3qxENUYv7FF5Vvum6vAj-2" value="" style="endArrow=classic;html=1;rounded=0;exitX=0;exitY=0.5;exitDx=0;exitDy=0;exitPerimeter=0;" edge="1" parent="1" source="zz0z5hb-NqMB_PEZiXnN-81">
          <mxGeometry width="50" height="50" relative="1" as="geometry">
            <mxPoint x="390" y="3660" as="sourcePoint" />
            <mxPoint x="90" y="3690" as="targetPoint" />
            <Array as="points">
              <mxPoint x="90" y="3630" />
            </Array>
          </mxGeometry>
        </mxCell>
        <mxCell id="3qxENUYv7FF5Vvum6vAj-3" value="" style="endArrow=classic;html=1;rounded=0;exitX=1;exitY=0.5;exitDx=0;exitDy=0;exitPerimeter=0;entryX=0.523;entryY=0;entryDx=0;entryDy=0;entryPerimeter=0;" edge="1" parent="1" source="zz0z5hb-NqMB_PEZiXnN-81" target="zz0z5hb-NqMB_PEZiXnN-84">
          <mxGeometry width="50" height="50" relative="1" as="geometry">
            <mxPoint x="390" y="3660" as="sourcePoint" />
            <mxPoint x="470" y="3690" as="targetPoint" />
            <Array as="points">
              <mxPoint x="480" y="3630" />
            </Array>
          </mxGeometry>
        </mxCell>
        <mxCell id="3qxENUYv7FF5Vvum6vAj-4" value="" style="endArrow=classic;html=1;rounded=0;exitX=0;exitY=0.5;exitDx=0;exitDy=0;exitPerimeter=0;" edge="1" parent="1" source="zz0z5hb-NqMB_PEZiXnN-84">
          <mxGeometry width="50" height="50" relative="1" as="geometry">
            <mxPoint x="390" y="3840" as="sourcePoint" />
            <mxPoint x="270" y="3780" as="targetPoint" />
            <Array as="points">
              <mxPoint x="270" y="3740" />
            </Array>
          </mxGeometry>
        </mxCell>
        <mxCell id="3qxENUYv7FF5Vvum6vAj-5" value="" style="endArrow=classic;html=1;rounded=0;exitX=1;exitY=0.5;exitDx=0;exitDy=0;exitPerimeter=0;entryX=0.5;entryY=0;entryDx=0;entryDy=0;entryPerimeter=0;" edge="1" parent="1" source="zz0z5hb-NqMB_PEZiXnN-84" target="3qxENUYv7FF5Vvum6vAj-8">
          <mxGeometry width="50" height="50" relative="1" as="geometry">
            <mxPoint x="390" y="3840" as="sourcePoint" />
            <mxPoint x="630" y="3820" as="targetPoint" />
            <Array as="points">
              <mxPoint x="630" y="3740" />
            </Array>
          </mxGeometry>
        </mxCell>
        <mxCell id="3qxENUYv7FF5Vvum6vAj-8" value="destino===regiaobr &amp;amp;&amp;amp; regiaobr===&quot;Norte&quot; &amp;amp;&amp;amp; classe===&quot;executiva&quot;" style="strokeWidth=2;html=1;shape=mxgraph.flowchart.decision;whiteSpace=wrap;fillColor=#e1d5e7;strokeColor=#9673a6;" vertex="1" parent="1">
          <mxGeometry x="516.37" y="3840" width="220" height="100" as="geometry" />
        </mxCell>
        <mxCell id="3qxENUYv7FF5Vvum6vAj-9" value="O valor total da viagem para o destino escolhido foi:${total_norte_eco}" style="strokeWidth=2;html=1;shape=mxgraph.flowchart.display;whiteSpace=wrap;fillColor=#d5e8d4;strokeColor=#82b366;" vertex="1" parent="1">
          <mxGeometry x="330.5" y="4045" width="160" height="70" as="geometry" />
        </mxCell>
        <mxCell id="3qxENUYv7FF5Vvum6vAj-10" value="" style="endArrow=classic;html=1;rounded=0;exitX=0;exitY=0.5;exitDx=0;exitDy=0;exitPerimeter=0;" edge="1" parent="1" source="3qxENUYv7FF5Vvum6vAj-8">
          <mxGeometry width="50" height="50" relative="1" as="geometry">
            <mxPoint x="390" y="3890" as="sourcePoint" />
            <mxPoint x="390" y="3918" as="targetPoint" />
            <Array as="points">
              <mxPoint x="390" y="3890" />
            </Array>
          </mxGeometry>
        </mxCell>
        <mxCell id="3qxENUYv7FF5Vvum6vAj-11" value="destino===regiaobr &amp;amp;&amp;amp; regiaobr===&quot;Norte&quot; &amp;amp;&amp;amp; classe===&quot;economica&quot;" style="strokeWidth=2;html=1;shape=mxgraph.flowchart.decision;whiteSpace=wrap;fillColor=#e1d5e7;strokeColor=#9673a6;" vertex="1" parent="1">
          <mxGeometry x="570" y="4030" width="220" height="100" as="geometry" />
        </mxCell>
        <mxCell id="3qxENUYv7FF5Vvum6vAj-12" value="" style="endArrow=classic;html=1;rounded=0;exitX=1;exitY=0.5;exitDx=0;exitDy=0;exitPerimeter=0;" edge="1" parent="1" source="3qxENUYv7FF5Vvum6vAj-8">
          <mxGeometry width="50" height="50" relative="1" as="geometry">
            <mxPoint x="390" y="4050" as="sourcePoint" />
            <mxPoint x="680" y="4030" as="targetPoint" />
            <Array as="points">
              <mxPoint x="736" y="4000" />
              <mxPoint x="680" y="4000" />
            </Array>
          </mxGeometry>
        </mxCell>
        <mxCell id="3qxENUYv7FF5Vvum6vAj-13" value="" style="endArrow=classic;html=1;rounded=0;exitX=0;exitY=0.5;exitDx=0;exitDy=0;exitPerimeter=0;" edge="1" parent="1" source="3qxENUYv7FF5Vvum6vAj-11">
          <mxGeometry width="50" height="50" relative="1" as="geometry">
            <mxPoint x="390" y="4230" as="sourcePoint" />
            <mxPoint x="490" y="4080" as="targetPoint" />
          </mxGeometry>
        </mxCell>
        <mxCell id="3qxENUYv7FF5Vvum6vAj-15" value="" style="endArrow=classic;html=1;rounded=0;exitX=1;exitY=0.5;exitDx=0;exitDy=0;exitPerimeter=0;" edge="1" parent="1" source="3qxENUYv7FF5Vvum6vAj-11">
          <mxGeometry width="50" height="50" relative="1" as="geometry">
            <mxPoint x="390" y="4230" as="sourcePoint" />
            <mxPoint x="560" y="4190" as="targetPoint" />
            <Array as="points">
              <mxPoint x="790" y="4160" />
              <mxPoint x="560" y="4160" />
            </Array>
          </mxGeometry>
        </mxCell>
        <mxCell id="3qxENUYv7FF5Vvum6vAj-17" value="O valor total da viagem para o destino escolhido foi:${total_europa_eco}`" style="strokeWidth=2;html=1;shape=mxgraph.flowchart.display;whiteSpace=wrap;fillColor=#d5e8d4;strokeColor=#82b366;" vertex="1" parent="1">
          <mxGeometry x="190" y="4205" width="160" height="70" as="geometry" />
        </mxCell>
        <mxCell id="3qxENUYv7FF5Vvum6vAj-18" value="" style="endArrow=classic;html=1;rounded=0;entryX=1;entryY=0.5;entryDx=0;entryDy=0;entryPerimeter=0;" edge="1" parent="1" target="3qxENUYv7FF5Vvum6vAj-17">
          <mxGeometry width="50" height="50" relative="1" as="geometry">
            <mxPoint x="450" y="4240" as="sourcePoint" />
            <mxPoint x="440" y="4020" as="targetPoint" />
          </mxGeometry>
        </mxCell>
        <mxCell id="3qxENUYv7FF5Vvum6vAj-19" value="" style="endArrow=classic;html=1;rounded=0;exitX=1;exitY=0.5;exitDx=0;exitDy=0;exitPerimeter=0;" edge="1" parent="1" source="zz0z5hb-NqMB_PEZiXnN-88">
          <mxGeometry width="50" height="50" relative="1" as="geometry">
            <mxPoint x="550" y="4340" as="sourcePoint" />
            <mxPoint x="561" y="4360" as="targetPoint" />
            <Array as="points">
              <mxPoint x="670" y="4330" />
              <mxPoint x="561" y="4330" />
            </Array>
          </mxGeometry>
        </mxCell>
        <mxCell id="3qxENUYv7FF5Vvum6vAj-20" value="" style="endArrow=classic;html=1;rounded=0;exitX=0;exitY=0.5;exitDx=0;exitDy=0;exitPerimeter=0;entryX=1;entryY=0.5;entryDx=0;entryDy=0;entryPerimeter=0;" edge="1" parent="1" source="zz0z5hb-NqMB_PEZiXnN-89" target="zz0z5hb-NqMB_PEZiXnN-125">
          <mxGeometry width="50" height="50" relative="1" as="geometry">
            <mxPoint x="390" y="4430" as="sourcePoint" />
            <mxPoint x="440" y="4380" as="targetPoint" />
          </mxGeometry>
        </mxCell>
        <mxCell id="3qxENUYv7FF5Vvum6vAj-21" value="" style="endArrow=classic;html=1;rounded=0;exitX=1;exitY=0.5;exitDx=0;exitDy=0;exitPerimeter=0;entryX=0.5;entryY=0;entryDx=0;entryDy=0;entryPerimeter=0;" edge="1" parent="1" source="zz0z5hb-NqMB_PEZiXnN-89">
          <mxGeometry width="50" height="50" relative="1" as="geometry">
            <mxPoint x="390" y="4580" as="sourcePoint" />
            <mxPoint x="554.76" y="4550.000000000001" as="targetPoint" />
            <Array as="points">
              <mxPoint x="673" y="4520" />
              <mxPoint x="555" y="4520" />
            </Array>
          </mxGeometry>
        </mxCell>
        <mxCell id="3qxENUYv7FF5Vvum6vAj-26" value="" style="endArrow=classic;html=1;rounded=0;" edge="1" parent="1">
          <mxGeometry width="50" height="50" relative="1" as="geometry">
            <mxPoint x="454.62" y="5030" as="sourcePoint" />
            <mxPoint x="394.62" y="5070" as="targetPoint" />
            <Array as="points">
              <mxPoint x="394.62" y="5030" />
            </Array>
          </mxGeometry>
        </mxCell>
        <mxCell id="3qxENUYv7FF5Vvum6vAj-27" value="O valor total da viagem para o destino escolhido foi:${total_asia_exe" style="strokeWidth=2;html=1;shape=mxgraph.flowchart.display;whiteSpace=wrap;fillColor=#d5e8d4;strokeColor=#82b366;" vertex="1" parent="1">
          <mxGeometry x="305.75" y="5070" width="150" height="80" as="geometry" />
        </mxCell>
        <mxCell id="3qxENUYv7FF5Vvum6vAj-28" value="" style="endArrow=classic;html=1;rounded=0;exitX=1;exitY=0.5;exitDx=0;exitDy=0;exitPerimeter=0;" edge="1" parent="1" source="zz0z5hb-NqMB_PEZiXnN-90">
          <mxGeometry width="50" height="50" relative="1" as="geometry">
            <mxPoint x="394.62" y="5170" as="sourcePoint" />
            <mxPoint x="594.62" y="5190" as="targetPoint" />
            <Array as="points">
              <mxPoint x="675.62" y="5140" />
              <mxPoint x="594.62" y="5140" />
            </Array>
          </mxGeometry>
        </mxCell>
        <mxCell id="3qxENUYv7FF5Vvum6vAj-29" value="" style="endArrow=classic;html=1;rounded=0;" edge="1" parent="1">
          <mxGeometry width="50" height="50" relative="1" as="geometry">
            <mxPoint x="484.62" y="5240" as="sourcePoint" />
            <mxPoint x="414.62" y="5240" as="targetPoint" />
          </mxGeometry>
        </mxCell>
        <mxCell id="3qxENUYv7FF5Vvum6vAj-30" value="" style="endArrow=classic;html=1;rounded=0;exitX=1;exitY=0.5;exitDx=0;exitDy=0;exitPerimeter=0;" edge="1" parent="1" source="zz0z5hb-NqMB_PEZiXnN-94">
          <mxGeometry width="50" height="50" relative="1" as="geometry">
            <mxPoint x="394.62" y="5280" as="sourcePoint" />
            <mxPoint x="624.62" y="5370" as="targetPoint" />
            <Array as="points">
              <mxPoint x="706.62" y="5340" />
              <mxPoint x="624.62" y="5340" />
            </Array>
          </mxGeometry>
        </mxCell>
        <mxCell id="3qxENUYv7FF5Vvum6vAj-31" value="O valor total da viagem para o destino escolhido foi:${total_africa_exe}" style="strokeWidth=2;html=1;shape=mxgraph.flowchart.display;whiteSpace=wrap;fillColor=#d5e8d4;strokeColor=#82b366;" vertex="1" parent="1">
          <mxGeometry x="291.38" y="5380" width="150" height="80" as="geometry" />
        </mxCell>
        <mxCell id="3qxENUYv7FF5Vvum6vAj-32" value="" style="endArrow=classic;html=1;rounded=0;exitX=0;exitY=0.5;exitDx=0;exitDy=0;exitPerimeter=0;" edge="1" parent="1" source="zz0z5hb-NqMB_PEZiXnN-93">
          <mxGeometry width="50" height="50" relative="1" as="geometry">
            <mxPoint x="394.62" y="5300" as="sourcePoint" />
            <mxPoint x="444.62" y="5420" as="targetPoint" />
          </mxGeometry>
        </mxCell>
        <mxCell id="3qxENUYv7FF5Vvum6vAj-33" value="" style="endArrow=classic;html=1;rounded=0;exitX=0.5;exitY=1;exitDx=0;exitDy=0;exitPerimeter=0;" edge="1" parent="1" source="zz0z5hb-NqMB_PEZiXnN-120">
          <mxGeometry width="50" height="50" relative="1" as="geometry">
            <mxPoint x="390" y="3920" as="sourcePoint" />
            <mxPoint x="105" y="4575.555555555556" as="targetPoint" />
          </mxGeometry>
        </mxCell>
        <mxCell id="3qxENUYv7FF5Vvum6vAj-34" value="" style="endArrow=classic;html=1;rounded=0;exitX=0;exitY=0.5;exitDx=0;exitDy=0;exitPerimeter=0;" edge="1" parent="1" source="zz0z5hb-NqMB_PEZiXnN-104">
          <mxGeometry width="50" height="50" relative="1" as="geometry">
            <mxPoint x="410" y="3900" as="sourcePoint" />
            <mxPoint x="110" y="3820" as="targetPoint" />
          </mxGeometry>
        </mxCell>
        <mxCell id="3qxENUYv7FF5Vvum6vAj-35" value="" style="endArrow=classic;html=1;rounded=0;exitX=0;exitY=0.5;exitDx=0;exitDy=0;exitPerimeter=0;" edge="1" parent="1" source="zz0z5hb-NqMB_PEZiXnN-124">
          <mxGeometry width="50" height="50" relative="1" as="geometry">
            <mxPoint x="230" y="4000" as="sourcePoint" />
            <mxPoint x="110" y="3955" as="targetPoint" />
          </mxGeometry>
        </mxCell>
        <mxCell id="3qxENUYv7FF5Vvum6vAj-36" value="" style="endArrow=classic;html=1;rounded=0;exitX=0;exitY=0.5;exitDx=0;exitDy=0;exitPerimeter=0;" edge="1" parent="1" source="3qxENUYv7FF5Vvum6vAj-9">
          <mxGeometry width="50" height="50" relative="1" as="geometry">
            <mxPoint x="410" y="3900" as="sourcePoint" />
            <mxPoint x="110" y="4080" as="targetPoint" />
          </mxGeometry>
        </mxCell>
        <mxCell id="3qxENUYv7FF5Vvum6vAj-37" value="" style="endArrow=classic;html=1;rounded=0;exitX=0;exitY=0.5;exitDx=0;exitDy=0;exitPerimeter=0;" edge="1" parent="1" source="3qxENUYv7FF5Vvum6vAj-17">
          <mxGeometry width="50" height="50" relative="1" as="geometry">
            <mxPoint x="410" y="4210" as="sourcePoint" />
            <mxPoint x="110" y="4240" as="targetPoint" />
          </mxGeometry>
        </mxCell>
        <mxCell id="3qxENUYv7FF5Vvum6vAj-38" value="" style="endArrow=classic;html=1;rounded=0;exitX=0;exitY=0.5;exitDx=0;exitDy=0;exitPerimeter=0;" edge="1" parent="1" source="zz0z5hb-NqMB_PEZiXnN-125">
          <mxGeometry width="50" height="50" relative="1" as="geometry">
            <mxPoint x="410" y="4210" as="sourcePoint" />
            <mxPoint x="110" y="4410" as="targetPoint" />
          </mxGeometry>
        </mxCell>
        <mxCell id="3qxENUYv7FF5Vvum6vAj-39" value="4" style="ellipse;whiteSpace=wrap;html=1;aspect=fixed;fillColor=#ffe6cc;strokeColor=#d79b00;" vertex="1" parent="1">
          <mxGeometry x="535.88" y="4550" width="40" height="40" as="geometry" />
        </mxCell>
        <mxCell id="3qxENUYv7FF5Vvum6vAj-41" value="destino===continente &amp;amp;&amp;amp; continente==&quot;Asia&quot; &amp;amp;&amp;amp; classe===&quot;economica&quot;" style="strokeWidth=2;html=1;shape=mxgraph.flowchart.decision;whiteSpace=wrap;fillColor=#e1d5e7;strokeColor=#9673a6;" vertex="1" parent="1">
          <mxGeometry x="403.98" y="4790" width="220" height="100" as="geometry" />
        </mxCell>
        <mxCell id="3qxENUYv7FF5Vvum6vAj-42" value="4" style="ellipse;whiteSpace=wrap;html=1;aspect=fixed;fillColor=#ffe6cc;strokeColor=#d79b00;" vertex="1" parent="1">
          <mxGeometry x="493.98" y="4710" width="40" height="40" as="geometry" />
        </mxCell>
        <mxCell id="3qxENUYv7FF5Vvum6vAj-43" value="" style="endArrow=classic;html=1;rounded=0;exitX=0.5;exitY=1;exitDx=0;exitDy=0;" edge="1" parent="1" source="3qxENUYv7FF5Vvum6vAj-42">
          <mxGeometry width="50" height="50" relative="1" as="geometry">
            <mxPoint x="410" y="4790" as="sourcePoint" />
            <mxPoint x="514" y="4790" as="targetPoint" />
          </mxGeometry>
        </mxCell>
        <mxCell id="3qxENUYv7FF5Vvum6vAj-45" value="5" style="ellipse;whiteSpace=wrap;html=1;aspect=fixed;fillColor=#ffe6cc;strokeColor=#d79b00;" vertex="1" parent="1">
          <mxGeometry x="85" y="4570" width="40" height="40" as="geometry" />
        </mxCell>
        <mxCell id="3qxENUYv7FF5Vvum6vAj-46" value="5" style="ellipse;whiteSpace=wrap;html=1;aspect=fixed;fillColor=#ffe6cc;strokeColor=#d79b00;" vertex="1" parent="1">
          <mxGeometry x="85" y="4720" width="40" height="40" as="geometry" />
        </mxCell>
        <mxCell id="3qxENUYv7FF5Vvum6vAj-47" value="" style="endArrow=classic;html=1;rounded=0;exitX=0.5;exitY=1;exitDx=0;exitDy=0;" edge="1" parent="1" source="3qxENUYv7FF5Vvum6vAj-46">
          <mxGeometry width="50" height="50" relative="1" as="geometry">
            <mxPoint x="410" y="4910" as="sourcePoint" />
            <mxPoint x="105" y="5530" as="targetPoint" />
          </mxGeometry>
        </mxCell>
        <mxCell id="3qxENUYv7FF5Vvum6vAj-48" value="" style="endArrow=classic;html=1;rounded=0;exitX=1;exitY=0.5;exitDx=0;exitDy=0;exitPerimeter=0;" edge="1" parent="1" source="3qxENUYv7FF5Vvum6vAj-41">
          <mxGeometry width="50" height="50" relative="1" as="geometry">
            <mxPoint x="410" y="5080" as="sourcePoint" />
            <mxPoint x="560" y="4980" as="targetPoint" />
            <Array as="points">
              <mxPoint x="624" y="4920" />
              <mxPoint x="560" y="4920" />
            </Array>
          </mxGeometry>
        </mxCell>
        <mxCell id="3qxENUYv7FF5Vvum6vAj-49" value="" style="endArrow=classic;html=1;rounded=0;" edge="1" parent="1">
          <mxGeometry width="50" height="50" relative="1" as="geometry">
            <mxPoint x="400" y="4840" as="sourcePoint" />
            <mxPoint x="320" y="4840" as="targetPoint" />
          </mxGeometry>
        </mxCell>
        <mxCell id="3qxENUYv7FF5Vvum6vAj-50" value="O valor total da viagem para o destino escolhido foi:${total_asia_eco}" style="strokeWidth=2;html=1;shape=mxgraph.flowchart.display;whiteSpace=wrap;fillColor=#d5e8d4;strokeColor=#82b366;" vertex="1" parent="1">
          <mxGeometry x="166.76" y="4800" width="150" height="80" as="geometry" />
        </mxCell>
        <mxCell id="3qxENUYv7FF5Vvum6vAj-51" value="" style="endArrow=classic;html=1;rounded=0;exitX=0;exitY=0.5;exitDx=0;exitDy=0;exitPerimeter=0;" edge="1" parent="1" source="3qxENUYv7FF5Vvum6vAj-50">
          <mxGeometry width="50" height="50" relative="1" as="geometry">
            <mxPoint x="390" y="4880" as="sourcePoint" />
            <mxPoint x="110" y="4840" as="targetPoint" />
          </mxGeometry>
        </mxCell>
        <mxCell id="3qxENUYv7FF5Vvum6vAj-52" value="" style="endArrow=classic;html=1;rounded=0;exitX=0;exitY=0.5;exitDx=0;exitDy=0;exitPerimeter=0;" edge="1" parent="1" source="3qxENUYv7FF5Vvum6vAj-27">
          <mxGeometry width="50" height="50" relative="1" as="geometry">
            <mxPoint x="390" y="5260" as="sourcePoint" />
            <mxPoint x="110" y="5110" as="targetPoint" />
          </mxGeometry>
        </mxCell>
        <mxCell id="3qxENUYv7FF5Vvum6vAj-53" value="" style="endArrow=classic;html=1;rounded=0;exitX=0;exitY=0.5;exitDx=0;exitDy=0;exitPerimeter=0;" edge="1" parent="1" source="zz0z5hb-NqMB_PEZiXnN-126">
          <mxGeometry width="50" height="50" relative="1" as="geometry">
            <mxPoint x="390" y="5260" as="sourcePoint" />
            <mxPoint x="110" y="5240" as="targetPoint" />
          </mxGeometry>
        </mxCell>
        <mxCell id="3qxENUYv7FF5Vvum6vAj-54" value="" style="endArrow=classic;html=1;rounded=0;exitX=0;exitY=0.5;exitDx=0;exitDy=0;exitPerimeter=0;" edge="1" parent="1" source="3qxENUYv7FF5Vvum6vAj-31">
          <mxGeometry width="50" height="50" relative="1" as="geometry">
            <mxPoint x="390" y="5260" as="sourcePoint" />
            <mxPoint x="110" y="5420" as="targetPoint" />
          </mxGeometry>
        </mxCell>
        <mxCell id="3qxENUYv7FF5Vvum6vAj-55" value="" style="ellipse;whiteSpace=wrap;html=1;aspect=fixed;fillColor=#f8cecc;strokeColor=#b85450;" vertex="1" parent="1">
          <mxGeometry x="85" y="5530" width="40" height="40" as="geometry" />
        </mxCell>
        <mxCell id="3qxENUYv7FF5Vvum6vAj-56" value="" style="endArrow=classic;html=1;rounded=0;exitX=1;exitY=0.5;exitDx=0;exitDy=0;" edge="1" parent="1" source="3qxENUYv7FF5Vvum6vAj-55">
          <mxGeometry width="50" height="50" relative="1" as="geometry">
            <mxPoint x="390" y="5570" as="sourcePoint" />
            <mxPoint x="320" y="5550" as="targetPoint" />
          </mxGeometry>
        </mxCell>
        <mxCell id="3qxENUYv7FF5Vvum6vAj-58" value="" style="endArrow=classic;html=1;rounded=0;exitX=1;exitY=0.5;exitDx=0;exitDy=0;exitPerimeter=0;" edge="1" parent="1" source="zz0z5hb-NqMB_PEZiXnN-93">
          <mxGeometry width="50" height="50" relative="1" as="geometry">
            <mxPoint x="390" y="5570" as="sourcePoint" />
            <mxPoint x="430" y="5550" as="targetPoint" />
            <Array as="points">
              <mxPoint x="740" y="5550" />
            </Array>
          </mxGeometry>
        </mxCell>
        <mxCell id="3qxENUYv7FF5Vvum6vAj-59" value="verdadeiro" style="text;html=1;align=center;verticalAlign=middle;whiteSpace=wrap;rounded=0;" vertex="1" parent="1">
          <mxGeometry x="106.75999999999999" y="3590" width="60" height="30" as="geometry" />
        </mxCell>
        <mxCell id="3qxENUYv7FF5Vvum6vAj-60" value="verdadeiro" style="text;html=1;align=center;verticalAlign=middle;whiteSpace=wrap;rounded=0;" vertex="1" parent="1">
          <mxGeometry x="286.13" y="3700" width="60" height="30" as="geometry" />
        </mxCell>
        <mxCell id="3qxENUYv7FF5Vvum6vAj-61" value="verdadeiro" style="text;html=1;align=center;verticalAlign=middle;whiteSpace=wrap;rounded=0;" vertex="1" parent="1">
          <mxGeometry x="417.24" y="3850" width="60" height="30" as="geometry" />
        </mxCell>
        <mxCell id="3qxENUYv7FF5Vvum6vAj-62" value="verdadeiro" style="text;html=1;align=center;verticalAlign=middle;whiteSpace=wrap;rounded=0;" vertex="1" parent="1">
          <mxGeometry x="506.75" y="4030" width="60" height="30" as="geometry" />
        </mxCell>
        <mxCell id="3qxENUYv7FF5Vvum6vAj-63" value="verdadeiro" style="text;html=1;align=center;verticalAlign=middle;whiteSpace=wrap;rounded=0;" vertex="1" parent="1">
          <mxGeometry x="377.49" y="4200" width="60" height="30" as="geometry" />
        </mxCell>
        <mxCell id="3qxENUYv7FF5Vvum6vAj-64" value="verdadeiro" style="text;html=1;align=center;verticalAlign=middle;whiteSpace=wrap;rounded=0;" vertex="1" parent="1">
          <mxGeometry x="395.75" y="4360" width="60" height="30" as="geometry" />
        </mxCell>
        <mxCell id="3qxENUYv7FF5Vvum6vAj-65" value="verdadeiro" style="text;html=1;align=center;verticalAlign=middle;whiteSpace=wrap;rounded=0;" vertex="1" parent="1">
          <mxGeometry x="336.38" y="4790" width="60" height="30" as="geometry" />
        </mxCell>
        <mxCell id="3qxENUYv7FF5Vvum6vAj-66" value="verdadeiro" style="text;html=1;align=center;verticalAlign=middle;whiteSpace=wrap;rounded=0;" vertex="1" parent="1">
          <mxGeometry x="380.5" y="4980" width="60" height="30" as="geometry" />
        </mxCell>
        <mxCell id="3qxENUYv7FF5Vvum6vAj-67" value="verdadeiro" style="text;html=1;align=center;verticalAlign=middle;whiteSpace=wrap;rounded=0;" vertex="1" parent="1">
          <mxGeometry x="423.63" y="5190" width="60" height="30" as="geometry" />
        </mxCell>
        <mxCell id="3qxENUYv7FF5Vvum6vAj-68" value="verdadeiro" style="text;html=1;align=center;verticalAlign=middle;whiteSpace=wrap;rounded=0;" vertex="1" parent="1">
          <mxGeometry x="452.75" y="5370" width="60" height="30" as="geometry" />
        </mxCell>
        <mxCell id="3qxENUYv7FF5Vvum6vAj-70" value="falso" style="text;html=1;align=center;verticalAlign=middle;whiteSpace=wrap;rounded=0;" vertex="1" parent="1">
          <mxGeometry x="720" y="5380" width="60" height="30" as="geometry" />
        </mxCell>
        <mxCell id="3qxENUYv7FF5Vvum6vAj-71" value="falso" style="text;html=1;align=center;verticalAlign=middle;whiteSpace=wrap;rounded=0;" vertex="1" parent="1">
          <mxGeometry x="690" y="5190" width="60" height="30" as="geometry" />
        </mxCell>
        <mxCell id="3qxENUYv7FF5Vvum6vAj-72" value="falso" style="text;html=1;align=center;verticalAlign=middle;whiteSpace=wrap;rounded=0;" vertex="1" parent="1">
          <mxGeometry x="690" y="4980" width="60" height="30" as="geometry" />
        </mxCell>
        <mxCell id="3qxENUYv7FF5Vvum6vAj-73" value="falso" style="text;html=1;align=center;verticalAlign=middle;whiteSpace=wrap;rounded=0;" vertex="1" parent="1">
          <mxGeometry x="623.98" y="4790" width="60" height="30" as="geometry" />
        </mxCell>
        <mxCell id="3qxENUYv7FF5Vvum6vAj-74" value="falso" style="text;html=1;align=center;verticalAlign=middle;whiteSpace=wrap;rounded=0;" vertex="1" parent="1">
          <mxGeometry x="671.13" y="4360" width="60" height="30" as="geometry" />
        </mxCell>
        <mxCell id="3qxENUYv7FF5Vvum6vAj-75" value="falso" style="text;html=1;align=center;verticalAlign=middle;whiteSpace=wrap;rounded=0;" vertex="1" parent="1">
          <mxGeometry x="683.98" y="4200" width="60" height="30" as="geometry" />
        </mxCell>
        <mxCell id="3qxENUYv7FF5Vvum6vAj-76" value="falso" style="text;html=1;align=center;verticalAlign=middle;whiteSpace=wrap;rounded=0;" vertex="1" parent="1">
          <mxGeometry x="767" y="4030" width="60" height="30" as="geometry" />
        </mxCell>
        <mxCell id="3qxENUYv7FF5Vvum6vAj-77" value="falso" style="text;html=1;align=center;verticalAlign=middle;whiteSpace=wrap;rounded=0;" vertex="1" parent="1">
          <mxGeometry x="750" y="3850" width="60" height="30" as="geometry" />
        </mxCell>
        <mxCell id="3qxENUYv7FF5Vvum6vAj-78" value="falso" style="text;html=1;align=center;verticalAlign=middle;whiteSpace=wrap;rounded=0;" vertex="1" parent="1">
          <mxGeometry x="640" y="3710" width="60" height="30" as="geometry" />
        </mxCell>
        <mxCell id="3qxENUYv7FF5Vvum6vAj-79" value="&lt;div style=&quot;line-height: 19px; white-space: pre;&quot;&gt;&lt;font style=&quot;font-size: 12px;&quot; face=&quot;Helvetica&quot;&gt;&lt;br&gt;&lt;/font&gt;&lt;/div&gt;&lt;div style=&quot;line-height: 19px; white-space: pre;&quot;&gt;&lt;font style=&quot;font-size: 12px;&quot; face=&quot;Helvetica&quot;&gt;let regiaobr = &quot;Norte&quot;;&lt;/font&gt;&lt;/div&gt;" style="html=1;strokeWidth=2;shape=manualInput;whiteSpace=wrap;rounded=1;size=26;arcSize=11;fillColor=#ffe6cc;strokeColor=#d79b00;" vertex="1" parent="1">
          <mxGeometry x="321.73" y="350" width="153.13" height="70" as="geometry" />
        </mxCell>
        <mxCell id="3qxENUYv7FF5Vvum6vAj-81" value="&lt;div&gt;&lt;br&gt;&lt;/div&gt;classe=&quot;executiva&quot;" style="html=1;strokeWidth=2;shape=manualInput;whiteSpace=wrap;rounded=1;size=26;arcSize=11;fillColor=#ffe6cc;strokeColor=#d79b00;" vertex="1" parent="1">
          <mxGeometry x="335.64" y="740" width="120" height="75" as="geometry" />
        </mxCell>
        <mxCell id="3qxENUYv7FF5Vvum6vAj-82" value="&lt;div style=&quot;line-height: 19px; white-space: pre;&quot;&gt;&lt;br&gt;&lt;/div&gt;&lt;div style=&quot;line-height: 19px; white-space: pre;&quot;&gt;let continente = &quot;Africa&quot;;&lt;/div&gt;" style="html=1;strokeWidth=2;shape=manualInput;whiteSpace=wrap;rounded=1;size=26;arcSize=11;fillColor=#ffe6cc;strokeColor=#d79b00;" vertex="1" parent="1">
          <mxGeometry x="327.27000000000004" y="460" width="150" height="70" as="geometry" />
        </mxCell>
      </root>
    </mxGraphModel>
  </diagram>
  <diagram id="DF-noOQg7R6qTk8aCVP6" name="PÃ¡gina-2">
    <mxGraphModel dx="1098" dy="1809" grid="1" gridSize="10" guides="1" tooltips="1" connect="1" arrows="1" fold="1" page="1" pageScale="1" pageWidth="827" pageHeight="1169" math="0" shadow="0">
      <root>
        <mxCell id="0" />
        <mxCell id="1" parent="0" />
        <mxCell id="VGa2XeNlmCsDWVMw0fm_-3" value="" style="edgeStyle=orthogonalEdgeStyle;rounded=0;orthogonalLoop=1;jettySize=auto;html=1;" edge="1" parent="1" source="VGa2XeNlmCsDWVMw0fm_-1" target="VGa2XeNlmCsDWVMw0fm_-2">
          <mxGeometry relative="1" as="geometry" />
        </mxCell>
        <mxCell id="VGa2XeNlmCsDWVMw0fm_-1" value="INICIO" style="strokeWidth=2;html=1;shape=mxgraph.flowchart.terminator;whiteSpace=wrap;" vertex="1" parent="1">
          <mxGeometry x="260" y="-614" width="100" height="60" as="geometry" />
        </mxCell>
        <mxCell id="VGa2XeNlmCsDWVMw0fm_-5" value="" style="edgeStyle=orthogonalEdgeStyle;rounded=0;orthogonalLoop=1;jettySize=auto;html=1;" edge="1" parent="1" target="VGa2XeNlmCsDWVMw0fm_-4">
          <mxGeometry relative="1" as="geometry">
            <mxPoint x="300" y="-430" as="sourcePoint" />
          </mxGeometry>
        </mxCell>
        <mxCell id="VGa2XeNlmCsDWVMw0fm_-2" value="IDADE=18" style="shape=parallelogram;html=1;strokeWidth=2;perimeter=parallelogramPerimeter;whiteSpace=wrap;rounded=1;arcSize=12;size=0.23;" vertex="1" parent="1">
          <mxGeometry x="225" y="-500" width="170" height="60" as="geometry" />
        </mxCell>
        <mxCell id="VGa2XeNlmCsDWVMw0fm_-6" style="edgeStyle=orthogonalEdgeStyle;rounded=0;orthogonalLoop=1;jettySize=auto;html=1;" edge="1" parent="1" source="VGa2XeNlmCsDWVMw0fm_-4">
          <mxGeometry relative="1" as="geometry">
            <mxPoint x="480" y="-330" as="targetPoint" />
          </mxGeometry>
        </mxCell>
        <mxCell id="VGa2XeNlmCsDWVMw0fm_-14" value="" style="edgeStyle=orthogonalEdgeStyle;rounded=0;orthogonalLoop=1;jettySize=auto;html=1;" edge="1" parent="1" source="VGa2XeNlmCsDWVMw0fm_-4" target="VGa2XeNlmCsDWVMw0fm_-13">
          <mxGeometry relative="1" as="geometry" />
        </mxCell>
        <mxCell id="VGa2XeNlmCsDWVMw0fm_-4" value="IDADE &amp;gt;=18" style="rhombus;whiteSpace=wrap;html=1;strokeWidth=2;rounded=1;arcSize=12;" vertex="1" parent="1">
          <mxGeometry x="200" y="-370" width="200" height="80" as="geometry" />
        </mxCell>
        <mxCell id="VGa2XeNlmCsDWVMw0fm_-17" style="edgeStyle=orthogonalEdgeStyle;rounded=0;orthogonalLoop=1;jettySize=auto;html=1;" edge="1" parent="1" source="VGa2XeNlmCsDWVMw0fm_-7" target="VGa2XeNlmCsDWVMw0fm_-18">
          <mxGeometry relative="1" as="geometry">
            <mxPoint x="540" y="-250" as="targetPoint" />
          </mxGeometry>
        </mxCell>
        <mxCell id="VGa2XeNlmCsDWVMw0fm_-7" value="IIDADE" style="strokeWidth=2;html=1;shape=mxgraph.flowchart.display;whiteSpace=wrap;" vertex="1" parent="1">
          <mxGeometry x="490" y="-360" width="100" height="60" as="geometry" />
        </mxCell>
        <mxCell id="VGa2XeNlmCsDWVMw0fm_-8" value="FIM" style="strokeWidth=2;html=1;shape=mxgraph.flowchart.terminator;whiteSpace=wrap;" vertex="1" parent="1">
          <mxGeometry x="250" y="-140" width="100" height="60" as="geometry" />
        </mxCell>
        <mxCell id="VGa2XeNlmCsDWVMw0fm_-13" value="&quot;MENOR&amp;nbsp; DE IDADE&quot;" style="strokeWidth=2;html=1;shape=mxgraph.flowchart.display;whiteSpace=wrap;" vertex="1" parent="1">
          <mxGeometry x="60" y="-350" width="100" height="60" as="geometry" />
        </mxCell>
        <mxCell id="VGa2XeNlmCsDWVMw0fm_-16" value="" style="endArrow=classic;html=1;rounded=0;exitX=0.68;exitY=1;exitDx=0;exitDy=0;exitPerimeter=0;entryX=0;entryY=0.833;entryDx=0;entryDy=0;entryPerimeter=0;" edge="1" parent="1" target="VGa2XeNlmCsDWVMw0fm_-8">
          <mxGeometry width="50" height="50" relative="1" as="geometry">
            <mxPoint x="118" y="-290" as="sourcePoint" />
            <mxPoint x="-90" y="-100" as="targetPoint" />
            <Array as="points">
              <mxPoint x="100" y="-150" />
            </Array>
          </mxGeometry>
        </mxCell>
        <mxCell id="VGa2XeNlmCsDWVMw0fm_-19" style="edgeStyle=orthogonalEdgeStyle;rounded=0;orthogonalLoop=1;jettySize=auto;html=1;exitX=1;exitY=0.5;exitDx=0;exitDy=0;" edge="1" parent="1" source="VGa2XeNlmCsDWVMw0fm_-18">
          <mxGeometry relative="1" as="geometry">
            <mxPoint x="670" y="-220" as="targetPoint" />
          </mxGeometry>
        </mxCell>
        <mxCell id="VGa2XeNlmCsDWVMw0fm_-18" value="VOTO=18" style="rhombus;whiteSpace=wrap;html=1;" vertex="1" parent="1">
          <mxGeometry x="500" y="-260" width="80" height="80" as="geometry" />
        </mxCell>
      </root>
    </mxGraphModel>
  </diagram>
</mxfile>
